<svg xmlns="http://www.w3.org/2000/svg" xmlns:xlink="http://www.w3.org/1999/xlink" version="1.1" width="256" height="256" viewBox="0 0 256 256" xml:space="preserve">
<g style="stroke: none; stroke-width: 0; stroke-dasharray: none; stroke-linecap: butt; stroke-linejoin: miter; stroke-miterlimit: 10; fill: none; fill-rule: nonzero; opacity: 1;" transform="translate(1.4065934065934016 1.4065934065934016) scale(2.81 2.81)">
	<path d="M 61.289 52.221 V 26.049 v -1.631 c 0 -8.953 -7.258 -16.211 -16.211 -16.211 h 0 c -8.953 0 -16.211 7.258 -16.211 16.211 v 1.631 v 26.145 L 61.289 52.221 z" style="stroke: none; stroke-width: 1; stroke-dasharray: none; stroke-linecap: butt; stroke-linejoin: miter; stroke-miterlimit: 10; fill: rgb(73,74,89); fill-rule: nonzero; opacity: 1;" transform=" matrix(1 0 0 1 0 0) " stroke-linecap="round"/>
	<path d="M 61.289 53.221 L 61.289 53.221 l -32.424 -0.026 c -0.552 0 -0.999 -0.448 -0.999 -1 V 24.418 c 0 -9.49 7.721 -17.211 17.211 -17.211 c 9.491 0 17.211 7.721 17.211 17.211 v 27.802 c 0 0.266 -0.105 0.52 -0.293 0.707 S 61.554 53.221 61.289 53.221 z M 29.866 51.195 l 30.423 0.024 V 24.418 c 0 -8.388 -6.824 -15.211 -15.211 -15.211 c -8.388 0 -15.211 6.824 -15.211 15.211 V 51.195 z" style="stroke: none; stroke-width: 1; stroke-dasharray: none; stroke-linecap: butt; stroke-linejoin: miter; stroke-miterlimit: 10; fill: rgb(0,0,0); fill-rule: nonzero; opacity: 1;" transform=" matrix(1 0 0 1 0 0) " stroke-linecap="round"/>
	<path d="M 37.607 44.402 l -0.038 2.197 c 0 2.392 -1.855 4.442 -4.408 4.872 l -6.597 1.111 c -3.475 0.585 -6 3.375 -6 6.631 V 89 h 48.872 V 59.213 c 0 -3.255 -2.525 -6.045 -6 -6.631 l -6.597 -1.111 c -2.553 -0.43 -4.408 -2.48 -4.408 -4.872 l -0.038 -2.197" style="stroke: none; stroke-width: 1; stroke-dasharray: none; stroke-linecap: butt; stroke-linejoin: miter; stroke-miterlimit: 10; fill: rgb(230,236,255); fill-rule: nonzero; opacity: 1;" transform=" matrix(1 0 0 1 0 0) " stroke-linecap="round"/>
	<path d="M 56.84 51.471 L 56.84 51.471 c -2.554 -0.43 -4.409 -2.48 -4.409 -4.872 l -0.038 -2.197 H 37.607 l -0.038 2.197 c 0 2.392 -1.855 4.442 -4.408 4.872 L 45 69.755 L 56.84 51.471 z" style="stroke: none; stroke-width: 1; stroke-dasharray: none; stroke-linecap: butt; stroke-linejoin: miter; stroke-miterlimit: 10; fill: rgb(234,194,185); fill-rule: nonzero; opacity: 1;" transform=" matrix(1 0 0 1 0 0) " stroke-linecap="round"/>
	<path d="M 53.552 56.549 c -5.666 3.952 -11.368 3.904 -17.103 0 v 14.423 l 17.103 0.459 V 56.549 z" style="stroke: none; stroke-width: 1; stroke-dasharray: none; stroke-linecap: butt; stroke-linejoin: miter; stroke-miterlimit: 10; fill: rgb(230,236,255); fill-rule: nonzero; opacity: 1;" transform=" matrix(1 0 0 1 0 0) " stroke-linecap="round"/>
	<path d="M 45.052 60.5 c -3.045 0 -6.107 -1.041 -9.166 -3.124 c -0.457 -0.311 -0.575 -0.933 -0.264 -1.389 s 0.934 -0.577 1.389 -0.264 c 5.441 3.701 10.663 3.705 15.968 0.006 c 0.455 -0.315 1.077 -0.203 1.393 0.248 c 0.315 0.453 0.205 1.077 -0.248 1.393 C 51.132 59.456 48.101 60.5 45.052 60.5 z" style="stroke: none; stroke-width: 1; stroke-dasharray: none; stroke-linecap: butt; stroke-linejoin: miter; stroke-miterlimit: 10; fill: rgb(0,0,0); fill-rule: nonzero; opacity: 1;" transform=" matrix(1 0 0 1 0 0) " stroke-linecap="round"/>
	<path d="M 45 70.755 L 45 70.755 c -0.339 0 -0.655 -0.172 -0.839 -0.456 l -11.84 -18.284 c -0.183 -0.283 -0.211 -0.639 -0.076 -0.947 c 0.135 -0.308 0.417 -0.527 0.749 -0.583 c 2.071 -0.349 3.574 -1.982 3.574 -3.885 l 0.038 -2.215 c 0.01 -0.546 0.455 -0.983 1 -0.983 h 14.787 c 0.546 0 0.99 0.437 1 0.983 l 0.038 2.197 c 0 1.92 1.503 3.554 3.574 3.902 c 0.332 0.056 0.614 0.275 0.75 0.584 c 0.136 0.308 0.107 0.664 -0.075 0.947 L 45.84 70.299 C 45.656 70.583 45.339 70.755 45 70.755 z M 34.734 52.061 L 45 67.915 l 10.267 -15.854 c -2.288 -0.925 -3.836 -3.046 -3.836 -5.461 l -0.021 -1.198 H 38.59 l -0.021 1.215 C 38.569 49.018 37.021 51.136 34.734 52.061 z" style="stroke: none; stroke-width: 1; stroke-dasharray: none; stroke-linecap: butt; stroke-linejoin: miter; stroke-miterlimit: 10; fill: rgb(0,0,0); fill-rule: nonzero; opacity: 1;" transform=" matrix(1 0 0 1 0 0) " stroke-linecap="round"/>
	<path d="M 69.436 90 H 20.564 c -0.552 0 -1 -0.447 -1 -1 V 59.213 c 0 -3.746 2.874 -6.949 6.833 -7.617 l 6.598 -1.111 c 2.071 -0.349 3.574 -1.982 3.574 -3.885 l 0.038 -2.215 c 0.01 -0.552 0.447 -1.008 1.017 -0.983 c 0.552 0.01 0.992 0.465 0.983 1.017 l -0.038 2.198 c 0 2.865 -2.205 5.328 -5.242 5.84 l -6.597 1.111 c -2.993 0.505 -5.166 2.879 -5.166 5.645 V 88 h 46.872 V 59.213 c 0 -2.766 -2.172 -5.14 -5.165 -5.645 l -6.597 -1.111 c -3.037 -0.512 -5.242 -2.975 -5.242 -5.857 l -0.038 -2.181 c -0.01 -0.552 0.431 -1.007 0.982 -1.017 c 0.554 -0.019 1.008 0.431 1.018 0.983 l 0.038 2.197 c 0 1.92 1.503 3.554 3.574 3.902 l 6.597 1.111 c 3.959 0.668 6.833 3.871 6.833 7.617 V 89 C 70.436 89.553 69.988 90 69.436 90 z" style="stroke: none; stroke-width: 1; stroke-dasharray: none; stroke-linecap: butt; stroke-linejoin: miter; stroke-miterlimit: 10; fill: rgb(0,0,0); fill-rule: nonzero; opacity: 1;" transform=" matrix(1 0 0 1 0 0) " stroke-linecap="round"/>
	<path d="M 56.842 52.471 c -0.055 0 -0.11 -0.005 -0.167 -0.014 c -3.037 -0.512 -5.242 -2.975 -5.242 -5.857 l -0.039 -2.18 c -0.01 -0.552 0.43 -1.008 0.982 -1.018 c 0.54 -0.016 1.008 0.43 1.018 0.982 l 0.039 2.198 c 0 1.92 1.503 3.554 3.574 3.902 c 0.545 0.092 0.912 0.607 0.82 1.152 C 57.745 52.125 57.321 52.471 56.842 52.471 z" style="stroke: none; stroke-width: 1; stroke-dasharray: none; stroke-linecap: butt; stroke-linejoin: miter; stroke-miterlimit: 10; fill: rgb(0,0,0); fill-rule: nonzero; opacity: 1;" transform=" matrix(1 0 0 1 0 0) " stroke-linecap="round"/>
	<path d="M 45 70.755 c -0.339 0 -0.655 -0.172 -0.839 -0.456 l -11.84 -18.284 c -0.3 -0.464 -0.168 -1.083 0.296 -1.384 c 0.464 -0.299 1.083 -0.167 1.383 0.296 l 11 16.988 l 11 -16.988 c 0.301 -0.463 0.92 -0.596 1.384 -0.296 c 0.463 0.301 0.596 0.92 0.296 1.384 L 45.84 70.299 C 45.656 70.583 45.339 70.755 45 70.755 z" style="stroke: none; stroke-width: 1; stroke-dasharray: none; stroke-linecap: butt; stroke-linejoin: miter; stroke-miterlimit: 10; fill: rgb(0,0,0); fill-rule: nonzero; opacity: 1;" transform=" matrix(1 0 0 1 0 0) " stroke-linecap="round"/>
	<path d="M 57.245 24.442 v 8.395 c 0 7.12 -5.447 14.882 -12.167 14.882 h 0 c -6.72 0 -12.167 -7.763 -12.167 -14.882 v -8.395 c 7.004 -0.023 11.753 -0.964 15.962 -3.005 C 51.253 23.379 53.571 24.418 57.245 24.442 z" style="stroke: none; stroke-width: 1; stroke-dasharray: none; stroke-linecap: butt; stroke-linejoin: miter; stroke-miterlimit: 10; fill: rgb(255,221,212); fill-rule: nonzero; opacity: 1;" transform=" matrix(1 0 0 1 0 0) " stroke-linecap="round"/>
	<path d="M 45.078 48.719 c -7.536 0 -13.167 -8.385 -13.167 -15.882 v -8.395 c 0 -0.551 0.446 -0.998 0.997 -1 c 6.731 -0.022 11.375 -0.891 15.529 -2.905 c 0.349 -0.17 0.767 -0.121 1.068 0.125 c 2.024 1.652 4.116 2.757 7.746 2.78 c 0.55 0.003 0.993 0.45 0.993 1 v 8.395 C 58.244 40.333 52.613 48.719 45.078 48.719 z M 33.911 25.432 v 7.404 c 0 6.42 4.878 13.882 11.167 13.882 c 6.289 0 11.167 -7.462 11.167 -13.882 v -7.426 c -2.901 -0.168 -5.165 -1.018 -7.505 -2.805 C 44.66 24.469 40.141 25.332 33.911 25.432 z" style="stroke: none; stroke-width: 1; stroke-dasharray: none; stroke-linecap: butt; stroke-linejoin: miter; stroke-miterlimit: 10; fill: rgb(0,0,0); fill-rule: nonzero; opacity: 1;" transform=" matrix(1 0 0 1 0 0) " stroke-linecap="round"/>
	<path d="M 41.913 31.606 h -3.311 c -0.552 0 -1 -0.448 -1 -1 s 0.448 -1 1 -1 h 3.311 c 0.552 0 1 0.448 1 1 S 42.465 31.606 41.913 31.606 z" style="stroke: none; stroke-width: 1; stroke-dasharray: none; stroke-linecap: butt; stroke-linejoin: miter; stroke-miterlimit: 10; fill: rgb(0,0,0); fill-rule: nonzero; opacity: 1;" transform=" matrix(1 0 0 1 0 0) " stroke-linecap="round"/>
	<path d="M 51.553 31.606 h -3.31 c -0.553 0 -1 -0.448 -1 -1 s 0.447 -1 1 -1 h 3.31 c 0.553 0 1 0.448 1 1 S 52.105 31.606 51.553 31.606 z" style="stroke: none; stroke-width: 1; stroke-dasharray: none; stroke-linecap: butt; stroke-linejoin: miter; stroke-miterlimit: 10; fill: rgb(0,0,0); fill-rule: nonzero; opacity: 1;" transform=" matrix(1 0 0 1 0 0) " stroke-linecap="round"/>
	<path d="M 45.002 42.778 c -1.563 0 -3.101 -0.631 -4.569 -1.895 c -0.419 -0.36 -0.466 -0.992 -0.106 -1.41 s 0.992 -0.466 1.41 -0.106 c 2.196 1.888 4.328 1.881 6.708 -0.023 c 0.433 -0.345 1.063 -0.274 1.406 0.157 c 0.345 0.431 0.274 1.061 -0.156 1.406 C 48.135 42.154 46.556 42.778 45.002 42.778 z" style="stroke: none; stroke-width: 1; stroke-dasharray: none; stroke-linecap: butt; stroke-linejoin: miter; stroke-miterlimit: 10; fill: rgb(0,0,0); fill-rule: nonzero; opacity: 1;" transform=" matrix(1 0 0 1 0 0) " stroke-linecap="round"/>
	<path d="M 45.078 90 c -0.552 0 -1 -0.447 -1 -1 V 69.755 c 0 -0.553 0.448 -1 1 -1 s 1 0.447 1 1 V 89 C 46.078 89.553 45.63 90 45.078 90 z" style="stroke: none; stroke-width: 1; stroke-dasharray: none; stroke-linecap: butt; stroke-linejoin: miter; stroke-miterlimit: 10; fill: rgb(0,0,0); fill-rule: nonzero; opacity: 1;" transform=" matrix(1 0 0 1 0 0) " stroke-linecap="round"/>
	<polygon points="45,69.75 33.16,51.47 29.14,61.58 34.04,61.37 " style="stroke: none; stroke-width: 1; stroke-dasharray: none; stroke-linecap: butt; stroke-linejoin: miter; stroke-miterlimit: 10; fill: rgb(66,148,255); fill-rule: nonzero; opacity: 1;" transform="  matrix(1 0 0 1 0 0) "/>
	<path d="M 45 70.755 c -0.213 0 -0.428 -0.068 -0.607 -0.206 l -10.669 -8.161 l -4.542 0.188 c -0.335 0.034 -0.662 -0.144 -0.857 -0.421 c -0.196 -0.276 -0.238 -0.633 -0.113 -0.948 l 4.021 -10.106 c 0.138 -0.347 0.459 -0.589 0.832 -0.625 c 0.377 -0.032 0.734 0.138 0.937 0.451 l 11.84 18.284 c 0.265 0.409 0.196 0.948 -0.161 1.278 C 45.489 70.665 45.245 70.755 45 70.755 z M 34.044 60.373 c 0.219 0 0.433 0.072 0.607 0.206 l 6.373 4.875 l -7.65 -11.814 l -2.735 6.874 l 3.363 -0.14 C 34.016 60.373 34.03 60.373 34.044 60.373 z" style="stroke: none; stroke-width: 1; stroke-dasharray: none; stroke-linecap: butt; stroke-linejoin: miter; stroke-miterlimit: 10; fill: rgb(0,0,0); fill-rule: nonzero; opacity: 1;" transform=" matrix(1 0 0 1 0 0) " stroke-linecap="round"/>
	<polygon points="45,69.75 56.84,51.47 60.86,61.58 55.96,61.37 " style="stroke: none; stroke-width: 1; stroke-dasharray: none; stroke-linecap: butt; stroke-linejoin: miter; stroke-miterlimit: 10; fill: rgb(66,148,255); fill-rule: nonzero; opacity: 1;" transform="  matrix(1 0 0 1 0 0) "/>
	<path d="M 45 70.755 c -0.245 0 -0.488 -0.09 -0.679 -0.266 c -0.357 -0.33 -0.425 -0.869 -0.161 -1.278 L 56 50.927 c 0.203 -0.313 0.568 -0.488 0.938 -0.451 c 0.372 0.036 0.693 0.278 0.831 0.625 l 4.021 10.106 c 0.126 0.315 0.083 0.672 -0.113 0.948 c -0.195 0.277 -0.486 0.454 -0.857 0.421 l -4.541 -0.188 l -10.67 8.161 C 45.428 70.687 45.213 70.755 45 70.755 z M 56.627 53.64 l -7.65 11.814 l 6.373 -4.875 c 0.186 -0.143 0.403 -0.225 0.649 -0.205 l 3.362 0.14 L 56.627 53.64 z" style="stroke: none; stroke-width: 1; stroke-dasharray: none; stroke-linecap: butt; stroke-linejoin: miter; stroke-miterlimit: 10; fill: rgb(0,0,0); fill-rule: nonzero; opacity: 1;" transform=" matrix(1 0 0 1 0 0) " stroke-linecap="round"/>
	<path d="M 32.467 90 c -0.552 0 -1 -0.447 -1 -1 V 75.926 c 0 -0.553 0.448 -1 1 -1 s 1 0.447 1 1 V 89 C 33.467 89.553 33.019 90 32.467 90 z" style="stroke: none; stroke-width: 1; stroke-dasharray: none; stroke-linecap: butt; stroke-linejoin: miter; stroke-miterlimit: 10; fill: rgb(0,0,0); fill-rule: nonzero; opacity: 1;" transform=" matrix(1 0 0 1 0 0) " stroke-linecap="round"/>
	<path d="M 57.533 90 c -0.553 0 -1 -0.447 -1 -1 V 75.926 c 0 -0.553 0.447 -1 1 -1 s 1 0.447 1 1 V 89 C 58.533 89.553 58.086 90 57.533 90 z" style="stroke: none; stroke-width: 1; stroke-dasharray: none; stroke-linecap: butt; stroke-linejoin: miter; stroke-miterlimit: 10; fill: rgb(0,0,0); fill-rule: nonzero; opacity: 1;" transform=" matrix(1 0 0 1 0 0) " stroke-linecap="round"/>
	<path d="M 61.021 25.68 H 28.979 c -0.814 0 -1.473 -0.66 -1.473 -1.473 V 21.3 c 0 -0.814 0.66 -1.473 1.473 -1.473 h 32.042 c 0.814 0 1.473 0.66 1.473 1.473 v 2.907 C 62.494 25.021 61.835 25.68 61.021 25.68 z" style="stroke: none; stroke-width: 1; stroke-dasharray: none; stroke-linecap: butt; stroke-linejoin: miter; stroke-miterlimit: 10; fill: rgb(239,194,71); fill-rule: nonzero; opacity: 1;" transform=" matrix(1 0 0 1 0 0) " stroke-linecap="round"/>
	<path d="M 41.389 4.54 c -6.561 1.62 -11.432 7.528 -11.432 14.588 v 0.699 h 30.086 v -0.699 c 0 -7.061 -4.871 -12.969 -11.432 -14.588" style="stroke: none; stroke-width: 1; stroke-dasharray: none; stroke-linecap: butt; stroke-linejoin: miter; stroke-miterlimit: 10; fill: rgb(246,218,71); fill-rule: nonzero; opacity: 1;" transform=" matrix(1 0 0 1 0 0) " stroke-linecap="round"/>
	<path d="M 41.389 12.37 V 2.952 C 41.389 1.874 42.263 1 43.341 1 h 3.319 c 1.078 0 1.952 0.874 1.952 1.952 v 9.418" style="stroke: none; stroke-width: 1; stroke-dasharray: none; stroke-linecap: butt; stroke-linejoin: miter; stroke-miterlimit: 10; fill: rgb(239,194,71); fill-rule: nonzero; opacity: 1;" transform=" matrix(1 0 0 1 0 0) " stroke-linecap="round"/>
	<path d="M 48.611 13.37 c -0.553 0 -1 -0.448 -1 -1 V 2.952 C 47.611 2.427 47.185 2 46.659 2 H 43.34 c -0.525 0 -0.952 0.427 -0.952 0.952 v 9.418 c 0 0.552 -0.448 1 -1 1 s -1 -0.448 -1 -1 V 2.952 C 40.389 1.324 41.713 0 43.34 0 h 3.319 c 1.628 0 2.952 1.324 2.952 2.952 v 9.418 C 49.611 12.922 49.164 13.37 48.611 13.37 z" style="stroke: none; stroke-width: 1; stroke-dasharray: none; stroke-linecap: butt; stroke-linejoin: miter; stroke-miterlimit: 10; fill: rgb(0,0,0); fill-rule: nonzero; opacity: 1;" transform=" matrix(1 0 0 1 0 0) " stroke-linecap="round"/>
	<path d="M 61.021 26.68 H 28.979 c -1.364 0 -2.473 -1.109 -2.473 -2.473 V 21.3 c 0 -1.364 1.109 -2.473 2.473 -2.473 h 32.042 c 1.364 0 2.474 1.109 2.474 2.473 v 2.907 C 63.494 25.571 62.385 26.68 61.021 26.68 z M 28.979 20.827 c -0.261 0 -0.473 0.212 -0.473 0.473 v 2.907 c 0 0.261 0.212 0.473 0.473 0.473 h 32.042 c 0.261 0 0.474 -0.212 0.474 -0.473 V 21.3 c 0 -0.261 -0.213 -0.473 -0.474 -0.473 H 28.979 z" style="stroke: none; stroke-width: 1; stroke-dasharray: none; stroke-linecap: butt; stroke-linejoin: miter; stroke-miterlimit: 10; fill: rgb(0,0,0); fill-rule: nonzero; opacity: 1;" transform=" matrix(1 0 0 1 0 0) " stroke-linecap="round"/>
	<path d="M 60.043 20.827 H 29.957 c -0.552 0 -1 -0.448 -1 -1 v -0.699 c 0 -7.388 5.014 -13.787 12.192 -15.559 c 0.537 -0.132 1.079 0.195 1.21 0.731 c 0.132 0.536 -0.195 1.078 -0.731 1.21 c -6.186 1.528 -10.534 6.979 -10.668 13.317 h 28.08 C 58.906 12.489 54.557 7.038 48.371 5.51 c -0.536 -0.132 -0.863 -0.674 -0.73 -1.21 c 0.132 -0.536 0.677 -0.864 1.21 -0.731 c 7.179 1.772 12.192 8.171 12.192 15.559 v 0.699 C 61.043 20.379 60.596 20.827 60.043 20.827 z" style="stroke: none; stroke-width: 1; stroke-dasharray: none; stroke-linecap: butt; stroke-linejoin: miter; stroke-miterlimit: 10; fill: rgb(0,0,0); fill-rule: nonzero; opacity: 1;" transform=" matrix(1 0 0 1 0 0) " stroke-linecap="round"/>
</g>
</svg>