<svg xmlns="http://www.w3.org/2000/svg" xmlns:xlink="http://www.w3.org/1999/xlink" version="1.1" width="256" height="256" viewBox="0 0 256 256" xml:space="preserve">
<g style="stroke: none; stroke-width: 0; stroke-dasharray: none; stroke-linecap: butt; stroke-linejoin: miter; stroke-miterlimit: 10; fill: none; fill-rule: nonzero; opacity: 1;" transform="translate(1.4065934065934016 1.4065934065934016) scale(2.81 2.81)">
	<path d="M 53.652 42.348 l 0.025 1.11 c 0 2.315 1.502 4.354 3.723 5.249 c 0.434 0.175 0.895 0.306 1.377 0.387 l 5.49 0.982 c 3.299 0.59 6.109 2.739 7.543 5.768 l 6.698 14.15 c 1.93 4.078 -0.218 8.918 -4.538 10.222 l -10.065 2.998 l -37.79 0.046 L 16.03 80.216 c -4.319 -1.304 -6.468 -6.144 -4.538 -10.222 l 6.698 -14.15 c 1.434 -3.029 4.244 -5.178 7.543 -5.768 l 5.49 -0.982 c 0.483 -0.081 0.944 -0.213 1.377 -0.387 c 2.221 -0.896 3.723 -2.934 3.723 -5.249 l 0.025 -1.11 L 53.652 42.348 z" style="stroke: none; stroke-width: 1; stroke-dasharray: none; stroke-linecap: butt; stroke-linejoin: miter; stroke-miterlimit: 10; fill: rgb(69,122,239); fill-rule: nonzero; opacity: 1;" transform=" matrix(1 0 0 1 0 0) " stroke-linecap="round"/>
	<path d="M 53.652 42.348 l 0.025 1.11 c 0 2.315 1.502 4.354 3.723 5.249 l -0.009 0.022 c -8.235 8.139 -16.496 8.165 -24.783 0 l -0.009 -0.022 c 2.221 -0.896 3.723 -2.934 3.723 -5.249 l 0.025 -1.11 H 53.652 z" style="stroke: none; stroke-width: 1; stroke-dasharray: none; stroke-linecap: butt; stroke-linejoin: miter; stroke-miterlimit: 10; fill: rgb(234,181,154); fill-rule: nonzero; opacity: 1;" transform=" matrix(1 0 0 1 0 0) " stroke-linecap="round"/>
	<path d="M 60.45 73.731 c -0.271 -0.805 -0.552 -1.522 -0.888 -2.272 c -0.885 -1.972 -3.117 -2.966 -5.182 -2.326 c -3.338 1.035 -6.267 2.417 -9.38 2.417 s -6.042 -1.382 -9.38 -2.417 c -2.064 -0.64 -4.297 0.354 -5.182 2.326 c -0.324 0.723 -0.548 1.497 -0.812 2.272 l -2.097 10.369 c -0.057 0.604 -0.108 1.209 -0.152 1.813 c -0.187 1.992 1.717 3.573 3.619 2.955 c 5.094 -1.655 8.866 -5.912 14.004 -5.912 s 8.91 4.257 14.004 5.912 c 1.902 0.618 3.806 -0.963 3.619 -2.955 c -0.046 -0.63 -0.093 -1.198 -0.153 -1.828 L 60.45 73.731 z" style="stroke: none; stroke-width: 1; stroke-dasharray: none; stroke-linecap: butt; stroke-linejoin: miter; stroke-miterlimit: 10; fill: rgb(85,64,94); fill-rule: nonzero; opacity: 1;" transform=" matrix(1 0 0 1 0 0) " stroke-linecap="round"/>
	<path d="M 26.384 83.857 l 3.562 0.703 c 0.714 0.141 1.408 -0.324 1.549 -1.038 c 0.141 -0.714 -0.324 -1.408 -1.038 -1.549 l 1.236 0.244 c 0.714 0.141 1.408 -0.324 1.549 -1.038 c 0.141 -0.714 -0.324 -1.408 -1.038 -1.549 c 0.714 0.141 1.408 -0.324 1.549 -1.038 c 0.141 -0.714 -0.324 -1.408 -1.038 -1.549 c 0.714 0.141 1.408 -0.324 1.549 -1.038 c 0.141 -0.714 -0.324 -1.408 -1.038 -1.549 l -4.797 -0.947 C 25.316 76.348 24.395 79.737 26.384 83.857 z" style="stroke: none; stroke-width: 1; stroke-dasharray: none; stroke-linecap: butt; stroke-linejoin: miter; stroke-miterlimit: 10; fill: rgb(255,199,171); fill-rule: nonzero; opacity: 1;" transform=" matrix(1 0 0 1 0 0) " stroke-linecap="round"/>
	<path d="M 63.616 83.857 l -3.562 0.703 c -0.714 0.141 -1.408 -0.324 -1.549 -1.038 c -0.141 -0.714 0.324 -1.408 1.038 -1.549 l -1.236 0.244 c -0.714 0.141 -1.408 -0.324 -1.549 -1.038 c -0.141 -0.714 0.324 -1.408 1.038 -1.549 c -0.714 0.141 -1.408 -0.324 -1.549 -1.038 c -0.141 -0.714 0.324 -1.408 1.038 -1.549 c -0.714 0.141 -1.408 -0.324 -1.549 -1.038 c -0.141 -0.714 0.324 -1.408 1.038 -1.549 l 4.797 -0.947 C 64.684 76.348 65.605 79.737 63.616 83.857 z" style="stroke: none; stroke-width: 1; stroke-dasharray: none; stroke-linecap: butt; stroke-linejoin: miter; stroke-miterlimit: 10; fill: rgb(255,199,171); fill-rule: nonzero; opacity: 1;" transform=" matrix(1 0 0 1 0 0) " stroke-linecap="round"/>
	<path d="M 58.361 31.938 h 2.82 c 2.324 0 4.208 -1.884 4.208 -4.208 v -1.912 c 0 -2.324 -1.884 -4.208 -4.208 -4.208 h -1.186" style="stroke: none; stroke-width: 1; stroke-dasharray: none; stroke-linecap: butt; stroke-linejoin: miter; stroke-miterlimit: 10; fill: rgb(69,122,239); fill-rule: nonzero; opacity: 1;" transform=" matrix(1 0 0 1 0 0) " stroke-linecap="round"/>
	<path d="M 30.005 21.611 h -1.186 c -2.324 0 -4.208 1.884 -4.208 4.208 v 1.912 c 0 2.324 1.884 4.208 4.208 4.208 h 2.82" style="stroke: none; stroke-width: 1; stroke-dasharray: none; stroke-linecap: butt; stroke-linejoin: miter; stroke-miterlimit: 10; fill: rgb(69,122,239); fill-rule: nonzero; opacity: 1;" transform=" matrix(1 0 0 1 0 0) " stroke-linecap="round"/>
	<path d="M 59.211 22.686 c -0.257 4.326 -0.811 8.441 -1.775 12.262 c -1.337 5.077 -5.088 9.257 -10.136 11.081 l 0 0 c -0.742 0.268 -1.52 0.402 -2.297 0.402 l 0 0 c -0.777 0 -1.555 -0.134 -2.297 -0.402 l 0 0 c -5.047 -1.824 -8.799 -6.004 -10.136 -11.081 c -1.07 -4.107 -1.647 -8.204 -1.73 -12.29 C 30.573 9.187 59.211 11.842 59.211 22.686 z" style="stroke: none; stroke-width: 1; stroke-dasharray: none; stroke-linecap: butt; stroke-linejoin: miter; stroke-miterlimit: 10; fill: rgb(255,199,171); fill-rule: nonzero; opacity: 1;" transform=" matrix(1 0 0 1 0 0) " stroke-linecap="round"/>
	<path d="M 61.181 32.938 h -2.82 c -0.553 0 -1 -0.448 -1 -1 c 0 -0.552 0.447 -1 1 -1 h 2.82 c 1.769 0 3.208 -1.439 3.208 -3.208 v -1.912 c 0 -1.769 -1.44 -3.208 -3.208 -3.208 h -1.186 c -0.553 0 -1 -0.448 -1 -1 c 0 -0.552 0.447 -1 1 -1 h 1.186 c 2.872 0 5.208 2.336 5.208 5.208 v 1.912 C 66.389 30.602 64.053 32.938 61.181 32.938 z" style="stroke: none; stroke-width: 1; stroke-dasharray: none; stroke-linecap: butt; stroke-linejoin: miter; stroke-miterlimit: 10; fill: rgb(0,0,0); fill-rule: nonzero; opacity: 1;" transform=" matrix(1 0 0 1 0 0) " stroke-linecap="round"/>
	<path d="M 59.211 22.686 c 2.776 -9.235 0 -14.805 -7.075 -17.418 c 0.208 -0.872 1.411 -1.744 3.309 -2.616 c -7.853 -2.95 -17.192 -2.276 -21.464 4.624 c -5.931 3.279 -3.976 12.264 -3.141 15.383 c 1.041 -8.587 8.105 -7.724 15.525 -4.618 c 3.924 1.501 7.33 1.347 10.541 0.846 C 58.35 18.617 59.259 20.717 59.211 22.686 z" style="stroke: none; stroke-width: 1; stroke-dasharray: none; stroke-linecap: butt; stroke-linejoin: miter; stroke-miterlimit: 10; fill: rgb(85,64,94); fill-rule: nonzero; opacity: 1;" transform=" matrix(1 0 0 1 0 0) " stroke-linecap="round"/>
	<path d="M 31.639 32.938 h -2.82 c -2.872 0 -5.208 -2.336 -5.208 -5.208 v -1.912 c 0 -2.872 2.336 -5.208 5.208 -5.208 h 1.186 c 0.552 0 1 0.448 1 1 c 0 0.552 -0.448 1 -1 1 h -1.186 c -1.769 0 -3.208 1.439 -3.208 3.208 v 1.912 c 0 1.769 1.439 3.208 3.208 3.208 h 2.82 c 0.552 0 1 0.448 1 1 S 32.191 32.938 31.639 32.938 z" style="stroke: none; stroke-width: 1; stroke-dasharray: none; stroke-linecap: butt; stroke-linejoin: miter; stroke-miterlimit: 10; fill: rgb(0,0,0); fill-rule: nonzero; opacity: 1;" transform=" matrix(1 0 0 1 0 0) " stroke-linecap="round"/>
	<path d="M 59.212 23.686 c -0.053 0 -0.105 -0.004 -0.158 -0.013 c -0.495 -0.079 -0.855 -0.511 -0.843 -1.012 c 0.031 -1.27 -0.395 -2.332 -0.812 -2.686 c -0.146 -0.124 -0.235 -0.118 -0.308 -0.105 c -3.088 0.482 -6.793 0.747 -11.084 -0.896 c -5.354 -2.241 -9.199 -2.706 -11.451 -1.395 c -1.516 0.881 -2.406 2.582 -2.724 5.199 c -0.058 0.475 -0.444 0.843 -0.922 0.877 c -0.471 0.028 -0.913 -0.276 -1.036 -0.739 c -1.249 -4.661 -2.444 -12.933 3.394 -16.386 c 4.757 -7.383 14.71 -7.754 22.528 -4.815 c 0.378 0.142 0.634 0.497 0.648 0.9 c 0.015 0.403 -0.215 0.776 -0.582 0.944 c -1.118 0.514 -1.783 0.937 -2.179 1.256 c 6.993 3.109 9.175 9.211 6.486 18.157 C 60.04 23.402 59.647 23.686 59.212 23.686 z M 57.156 17.862 c 0.542 0 1.083 0.202 1.539 0.591 c 0.133 0.113 0.259 0.242 0.377 0.385 c 0.951 -6.329 -1.451 -10.477 -7.283 -12.631 c -0.475 -0.175 -0.743 -0.678 -0.626 -1.17 c 0.18 -0.752 0.755 -1.455 1.777 -2.15 c -6.706 -1.864 -14.408 -1.06 -18.109 4.915 c -0.09 0.146 -0.216 0.266 -0.366 0.349 c -3.593 1.986 -3.947 6.476 -3.441 10.369 c 0.624 -1.16 1.467 -2.052 2.527 -2.669 c 2.864 -1.666 7.182 -1.252 13.2 1.267 c 3.816 1.459 7.065 1.238 10.002 0.781 C 56.887 17.874 57.021 17.862 57.156 17.862 z" style="stroke: none; stroke-width: 1; stroke-dasharray: none; stroke-linecap: butt; stroke-linejoin: miter; stroke-miterlimit: 10; fill: rgb(0,0,0); fill-rule: nonzero; opacity: 1;" transform=" matrix(1 0 0 1 0 0) " stroke-linecap="round"/>
	<path d="M 45.003 47.432 c -0.903 0 -1.79 -0.155 -2.637 -0.462 c -5.304 -1.917 -9.327 -6.315 -10.763 -11.766 c -1.086 -4.169 -1.678 -8.382 -1.763 -12.524 c -0.011 -0.552 0.427 -1.009 0.98 -1.021 c 0.538 0.007 1.009 0.428 1.021 0.98 c 0.081 3.987 0.652 8.044 1.698 12.059 c 1.268 4.813 4.822 8.698 9.508 10.392 c 1.257 0.454 2.656 0.455 3.914 0 c 4.686 -1.693 8.241 -5.58 9.51 -10.395 c 0.901 -3.574 1.473 -7.524 1.743 -12.067 c 0.032 -0.552 0.51 -0.976 1.058 -0.939 c 0.551 0.033 0.972 0.506 0.939 1.058 c -0.278 4.669 -0.868 8.74 -1.803 12.447 c -1.439 5.461 -5.462 9.86 -10.766 11.777 C 46.793 47.277 45.906 47.432 45.003 47.432 z" style="stroke: none; stroke-width: 1; stroke-dasharray: none; stroke-linecap: butt; stroke-linejoin: miter; stroke-miterlimit: 10; fill: rgb(0,0,0); fill-rule: nonzero; opacity: 1;" transform=" matrix(1 0 0 1 0 0) " stroke-linecap="round"/>
	<path d="M 45.017 40.944 c -1.298 0 -2.578 -0.291 -3.831 -0.874 c -0.501 -0.233 -0.718 -0.828 -0.485 -1.328 c 0.233 -0.502 0.828 -0.718 1.328 -0.485 c 1.983 0.921 3.98 0.918 6.106 -0.01 c 0.513 -0.221 1.096 0.011 1.317 0.516 c 0.222 0.506 -0.01 1.096 -0.516 1.317 C 47.617 40.655 46.308 40.944 45.017 40.944 z" style="stroke: none; stroke-width: 1; stroke-dasharray: none; stroke-linecap: butt; stroke-linejoin: miter; stroke-miterlimit: 10; fill: rgb(0,0,0); fill-rule: nonzero; opacity: 1;" transform=" matrix(1 0 0 1 0 0) " stroke-linecap="round"/>
	<path d="M 28.091 74.829 c -0.096 0 -0.193 -0.014 -0.29 -0.043 l -1.947 -0.588 c -0.944 -0.284 -1.714 -0.965 -2.114 -1.865 c -0.4 -0.9 -0.388 -1.928 0.034 -2.819 l 2.15 -4.541 c 0.236 -0.5 0.833 -0.713 1.332 -0.477 c 0.5 0.236 0.712 0.833 0.476 1.332 l -2.15 4.541 c -0.175 0.369 -0.18 0.778 -0.014 1.151 c 0.166 0.374 0.473 0.645 0.864 0.763 l 1.947 0.588 c 0.529 0.159 0.828 0.718 0.669 1.246 C 28.917 74.551 28.52 74.829 28.091 74.829 z" style="stroke: none; stroke-width: 1; stroke-dasharray: none; stroke-linecap: butt; stroke-linejoin: miter; stroke-miterlimit: 10; fill: rgb(0,0,0); fill-rule: nonzero; opacity: 1;" transform=" matrix(1 0 0 1 0 0) " stroke-linecap="round"/>
	<path d="M 45.01 55.871 c -4.375 0 -8.753 -2.143 -13.104 -6.43 c -0.394 -0.387 -0.398 -1.021 -0.011 -1.414 c 0.388 -0.393 1.02 -0.398 1.414 -0.01 c 7.879 7.76 15.526 7.761 23.378 0.001 c 0.394 -0.39 1.026 -0.384 1.414 0.008 c 0.389 0.393 0.385 1.026 -0.008 1.414 C 53.758 53.727 49.385 55.871 45.01 55.871 z" style="stroke: none; stroke-width: 1; stroke-dasharray: none; stroke-linecap: butt; stroke-linejoin: miter; stroke-miterlimit: 10; fill: rgb(0,0,0); fill-rule: nonzero; opacity: 1;" transform=" matrix(1 0 0 1 0 0) " stroke-linecap="round"/>
	<path d="M 26.115 84.26 c -0.096 0 -0.193 -0.014 -0.29 -0.043 l -10.084 -3.044 c -2.338 -0.705 -4.247 -2.39 -5.238 -4.622 c -0.991 -2.232 -0.96 -4.778 0.085 -6.985 l 6.698 -14.15 c 1.568 -3.315 4.661 -5.679 8.271 -6.325 l 5.489 -0.982 c 2.482 -0.419 4.276 -2.375 4.276 -4.653 l 0.026 -1.132 c 0.012 -0.552 0.479 -1.004 1.023 -0.977 c 0.552 0.012 0.989 0.47 0.977 1.023 l -0.025 1.109 c 0 3.235 -2.495 6.02 -5.934 6.601 l -5.479 0.98 c -2.975 0.532 -5.522 2.48 -6.815 5.211 l -6.698 14.15 c -0.795 1.681 -0.819 3.619 -0.064 5.319 c 0.754 1.698 2.208 2.982 3.988 3.519 l 10.084 3.044 c 0.529 0.159 0.828 0.718 0.669 1.246 C 26.941 83.981 26.544 84.26 26.115 84.26 z" style="stroke: none; stroke-width: 1; stroke-dasharray: none; stroke-linecap: butt; stroke-linejoin: miter; stroke-miterlimit: 10; fill: rgb(0,0,0); fill-rule: nonzero; opacity: 1;" transform=" matrix(1 0 0 1 0 0) " stroke-linecap="round"/>
	<path d="M 63.905 84.214 c -0.432 0 -0.829 -0.28 -0.958 -0.715 c -0.158 -0.529 0.144 -1.086 0.673 -1.243 l 10.065 -2.998 c 1.777 -0.536 3.23 -1.819 3.984 -3.519 c 0.754 -1.698 0.731 -3.637 -0.065 -5.318 l -6.697 -14.15 c -1.292 -2.732 -3.84 -4.679 -6.815 -5.211 l -5.49 -0.982 c -3.429 -0.578 -5.924 -3.364 -5.924 -6.622 l -0.025 -1.087 c -0.013 -0.552 0.425 -1.01 0.978 -1.023 c 0.008 0 0.016 0 0.022 0 c 0.542 0 0.987 0.433 1 0.977 l 0.025 1.11 c 0 2.301 1.794 4.257 4.266 4.674 l 5.499 0.983 c 3.611 0.646 6.703 3.01 8.272 6.325 l 6.697 14.15 c 1.045 2.207 1.075 4.753 0.085 6.985 c -0.99 2.233 -2.9 3.917 -5.238 4.622 l -10.069 3 C 64.095 84.2 63.999 84.214 63.905 84.214 z" style="stroke: none; stroke-width: 1; stroke-dasharray: none; stroke-linecap: butt; stroke-linejoin: miter; stroke-miterlimit: 10; fill: rgb(0,0,0); fill-rule: nonzero; opacity: 1;" transform=" matrix(1 0 0 1 0 0) " stroke-linecap="round"/>
	<path d="M 61.91 74.829 c -0.43 0 -0.827 -0.278 -0.957 -0.711 c -0.16 -0.528 0.14 -1.087 0.668 -1.246 l 1.947 -0.588 c 0.391 -0.118 0.697 -0.389 0.863 -0.763 c 0.166 -0.373 0.16 -0.782 -0.015 -1.151 l -2.149 -4.541 c -0.235 -0.499 -0.022 -1.096 0.477 -1.332 c 0.503 -0.238 1.096 -0.022 1.332 0.477 l 2.149 4.541 c 0.421 0.891 0.434 1.918 0.034 2.819 c -0.4 0.901 -1.17 1.581 -2.113 1.865 L 62.2 74.786 C 62.103 74.816 62.006 74.829 61.91 74.829 z" style="stroke: none; stroke-width: 1; stroke-dasharray: none; stroke-linecap: butt; stroke-linejoin: miter; stroke-miterlimit: 10; fill: rgb(0,0,0); fill-rule: nonzero; opacity: 1;" transform=" matrix(1 0 0 1 0 0) " stroke-linecap="round"/>
	<path d="M 39.368 30.513 c -0.552 0 -1 -0.448 -1 -1 v -2.698 c 0 -0.552 0.448 -1 1 -1 s 1 0.448 1 1 v 2.698 C 40.368 30.065 39.921 30.513 39.368 30.513 z" style="stroke: none; stroke-width: 1; stroke-dasharray: none; stroke-linecap: butt; stroke-linejoin: miter; stroke-miterlimit: 10; fill: rgb(0,0,0); fill-rule: nonzero; opacity: 1;" transform=" matrix(1 0 0 1 0 0) " stroke-linecap="round"/>
	<path d="M 50.631 30.513 c -0.553 0 -1 -0.448 -1 -1 v -2.698 c 0 -0.552 0.447 -1 1 -1 s 1 0.448 1 1 v 2.698 C 51.631 30.065 51.184 30.513 50.631 30.513 z" style="stroke: none; stroke-width: 1; stroke-dasharray: none; stroke-linecap: butt; stroke-linejoin: miter; stroke-miterlimit: 10; fill: rgb(0,0,0); fill-rule: nonzero; opacity: 1;" transform=" matrix(1 0 0 1 0 0) " stroke-linecap="round"/>
	<path d="M 26.235 23.502 c -0.552 0 -1 -0.448 -1 -1 v -2.466 c 0 -6.367 3.535 -12.101 9.226 -14.965 c 0.495 -0.249 1.095 -0.049 1.343 0.443 c 0.249 0.494 0.05 1.095 -0.443 1.343 c -5.012 2.523 -8.125 7.572 -8.125 13.178 v 2.466 C 27.235 23.054 26.788 23.502 26.235 23.502 z" style="stroke: none; stroke-width: 1; stroke-dasharray: none; stroke-linecap: butt; stroke-linejoin: miter; stroke-miterlimit: 10; fill: rgb(0,0,0); fill-rule: nonzero; opacity: 1;" transform=" matrix(1 0 0 1 0 0) " stroke-linecap="round"/>
	<path d="M 63.764 23.502 c -0.553 0 -1 -0.448 -1 -1 v -2.466 c 0 -6.576 -4.415 -12.413 -10.738 -14.193 c -0.531 -0.149 -0.841 -0.702 -0.691 -1.233 c 0.151 -0.532 0.703 -0.843 1.234 -0.691 c 7.18 2.022 12.195 8.65 12.195 16.118 v 2.466 C 64.764 23.054 64.317 23.502 63.764 23.502 z" style="stroke: none; stroke-width: 1; stroke-dasharray: none; stroke-linecap: butt; stroke-linejoin: miter; stroke-miterlimit: 10; fill: rgb(0,0,0); fill-rule: nonzero; opacity: 1;" transform=" matrix(1 0 0 1 0 0) " stroke-linecap="round"/>
	<path d="M 30.207 85.586 c -0.151 0 -0.303 -0.015 -0.455 -0.045 l -3.562 -0.702 c -0.308 -0.062 -0.57 -0.264 -0.707 -0.547 c -2.102 -4.354 -1.338 -8.231 2.27 -11.522 c 0.234 -0.215 0.556 -0.307 0.868 -0.243 l 4.797 0.947 c 1.254 0.249 2.073 1.471 1.825 2.725 c -0.093 0.469 -0.322 0.889 -0.659 1.215 c 0.182 0.418 0.243 0.893 0.148 1.372 c -0.095 0.48 -0.332 0.896 -0.659 1.213 c 0.188 0.429 0.241 0.904 0.148 1.374 c -0.179 0.905 -0.865 1.583 -1.704 1.798 c 0.007 0.181 -0.007 0.363 -0.043 0.546 c -0.12 0.607 -0.469 1.132 -0.983 1.477 C 31.106 85.452 30.662 85.586 30.207 85.586 z M 27.08 82.976 l 3.06 0.604 c 0.106 0.021 0.188 -0.014 0.239 -0.047 c 0.041 -0.027 0.113 -0.091 0.135 -0.203 c 0.022 -0.113 -0.021 -0.198 -0.048 -0.239 c -0.028 -0.041 -0.09 -0.113 -0.203 -0.135 l 0 0 c -0.542 -0.107 -0.894 -0.633 -0.787 -1.175 c 0.106 -0.541 0.629 -0.896 1.174 -0.788 l 0 0 l 1.236 0.244 c 0.172 0.04 0.34 -0.077 0.374 -0.251 c 0.022 -0.112 -0.021 -0.197 -0.048 -0.238 s -0.09 -0.113 -0.203 -0.135 c -0.477 -0.094 -0.807 -0.513 -0.807 -0.981 c 0 -0.064 0.006 -0.129 0.019 -0.194 c 0.106 -0.542 0.629 -0.893 1.174 -0.788 c 0.168 0.032 0.34 -0.078 0.375 -0.251 c 0.034 -0.172 -0.079 -0.34 -0.251 -0.375 c -0.476 -0.094 -0.806 -0.512 -0.806 -0.98 c 0 -0.064 0.006 -0.13 0.019 -0.195 c 0.107 -0.542 0.633 -0.9 1.175 -0.786 c 0.108 0.02 0.188 -0.014 0.238 -0.048 c 0.041 -0.027 0.113 -0.091 0.135 -0.203 c 0.034 -0.173 -0.079 -0.34 -0.251 -0.375 l -4.29 -0.847 C 26.215 77.08 25.683 79.763 27.08 82.976 z" style="stroke: none; stroke-width: 1; stroke-dasharray: none; stroke-linecap: butt; stroke-linejoin: miter; stroke-miterlimit: 10; fill: rgb(0,0,0); fill-rule: nonzero; opacity: 1;" transform=" matrix(1 0 0 1 0 0) " stroke-linecap="round"/>
	<path d="M 59.793 85.587 c -0.455 0 -0.899 -0.135 -1.286 -0.394 c -0.515 -0.345 -0.863 -0.87 -0.983 -1.478 c -0.036 -0.182 -0.05 -0.364 -0.043 -0.545 c -0.839 -0.215 -1.525 -0.894 -1.703 -1.798 c -0.093 -0.469 -0.04 -0.945 0.148 -1.374 c -0.327 -0.317 -0.564 -0.732 -0.659 -1.212 c -0.095 -0.48 -0.033 -0.955 0.148 -1.373 c -0.337 -0.325 -0.566 -0.745 -0.659 -1.215 c -0.247 -1.254 0.571 -2.476 1.824 -2.724 l 4.798 -0.948 c 0.313 -0.063 0.633 0.029 0.867 0.242 c 3.609 3.292 4.373 7.169 2.271 11.523 c -0.137 0.283 -0.398 0.485 -0.707 0.547 l -3.562 0.703 C 60.096 85.571 59.944 85.587 59.793 85.587 z M 63.616 83.857 h 0.01 H 63.616 z M 59.736 82.955 c -0.112 0.021 -0.176 0.094 -0.203 0.135 s -0.069 0.126 -0.048 0.238 c 0.021 0.108 0.086 0.171 0.136 0.204 c 0.05 0.034 0.135 0.065 0.238 0.048 l 3.061 -0.605 c 1.397 -3.212 0.864 -5.897 -1.661 -8.386 l -4.291 0.848 c -0.172 0.033 -0.284 0.202 -0.25 0.374 c 0.033 0.172 0.201 0.281 0.374 0.251 c 0.541 -0.116 1.068 0.243 1.175 0.786 c 0.014 0.065 0.02 0.131 0.02 0.195 c 0 0.468 -0.329 0.886 -0.806 0.98 c -0.173 0.035 -0.286 0.203 -0.252 0.376 c 0.033 0.172 0.204 0.282 0.375 0.25 c 0.547 -0.109 1.068 0.247 1.175 0.788 c 0.013 0.065 0.019 0.13 0.019 0.194 c 0 0.468 -0.33 0.887 -0.807 0.981 c -0.107 0.021 -0.17 0.085 -0.203 0.135 s -0.068 0.132 -0.048 0.238 c 0.034 0.173 0.203 0.282 0.375 0.251 l 1.232 -0.243 c 0.002 0 0.003 0 0.004 -0.001 c 0.547 -0.106 1.067 0.247 1.175 0.788 C 60.631 82.322 60.279 82.848 59.736 82.955 L 59.736 82.955 z" style="stroke: none; stroke-width: 1; stroke-dasharray: none; stroke-linecap: butt; stroke-linejoin: miter; stroke-miterlimit: 10; fill: rgb(0,0,0); fill-rule: nonzero; opacity: 1;" transform=" matrix(1 0 0 1 0 0) " stroke-linecap="round"/>
	<path d="M 30.573 74.053 l -1.894 -0.645 l 0.191 -0.575 c 0.192 -0.588 0.391 -1.194 0.655 -1.783 c 1.089 -2.429 3.84 -3.658 6.39 -2.871 c 0.854 0.265 1.681 0.552 2.492 0.833 c 2.28 0.791 4.434 1.539 6.592 1.539 c 2.157 0 4.312 -0.747 6.592 -1.539 c 0.811 -0.281 1.638 -0.568 2.492 -0.833 c 2.556 -0.789 5.3 0.443 6.389 2.871 c 0.354 0.788 0.647 1.539 0.924 2.362 l -1.897 0.637 c -0.255 -0.761 -0.526 -1.453 -0.853 -2.181 c -0.675 -1.507 -2.381 -2.272 -3.972 -1.779 c -0.832 0.258 -1.639 0.538 -2.429 0.813 c -2.444 0.849 -4.752 1.65 -7.248 1.65 s -4.804 -0.802 -7.248 -1.65 c -0.79 -0.274 -1.596 -0.555 -2.428 -0.813 c -1.59 -0.493 -3.297 0.272 -3.972 1.779 c -0.221 0.493 -0.396 1.024 -0.58 1.587 L 30.573 74.053 z" style="stroke: none; stroke-width: 1; stroke-dasharray: none; stroke-linecap: butt; stroke-linejoin: miter; stroke-miterlimit: 10; fill: rgb(0,0,0); fill-rule: nonzero; opacity: 1;" transform=" matrix(1 0 0 1 0 0) " stroke-linecap="round"/>
	<path d="M 30.154 90 c -0.84 0 -1.668 -0.285 -2.348 -0.829 c -1.013 -0.812 -1.546 -2.065 -1.424 -3.353 c 0.043 -0.591 0.094 -1.203 0.152 -1.815 l 1.991 0.189 c -0.057 0.598 -0.106 1.194 -0.15 1.791 c -0.06 0.637 0.196 1.236 0.681 1.625 c 0.472 0.378 1.067 0.491 1.631 0.306 c 1.935 -0.629 3.725 -1.687 5.457 -2.709 c 2.705 -1.599 5.502 -3.251 8.856 -3.251 s 6.152 1.652 8.856 3.251 c 1.732 1.023 3.522 2.08 5.456 2.709 c 0.563 0.186 1.159 0.072 1.632 -0.306 c 0.485 -0.389 0.741 -0.988 0.683 -1.604 c -0.048 -0.643 -0.093 -1.204 -0.152 -1.826 l 1.99 -0.191 c 0.062 0.638 0.108 1.211 0.155 1.85 c 0.119 1.269 -0.413 2.523 -1.427 3.333 c -0.992 0.793 -2.302 1.033 -3.499 0.647 c -2.145 -0.697 -4.031 -1.812 -5.855 -2.89 c -2.588 -1.528 -5.033 -2.973 -7.839 -2.973 s -5.251 1.444 -7.838 2.973 c -1.824 1.078 -3.711 2.193 -5.856 2.89 C 30.928 89.94 30.54 90 30.154 90 z" style="stroke: none; stroke-width: 1; stroke-dasharray: none; stroke-linecap: butt; stroke-linejoin: miter; stroke-miterlimit: 10; fill: rgb(0,0,0); fill-rule: nonzero; opacity: 1;" transform=" matrix(1 0 0 1 0 0) " stroke-linecap="round"/>
</g>
</svg>