<svg xmlns="http://www.w3.org/2000/svg" xmlns:xlink="http://www.w3.org/1999/xlink" version="1.1" width="256" height="256" viewBox="0 0 256 256" xml:space="preserve">
<g style="stroke: none; stroke-width: 0; stroke-dasharray: none; stroke-linecap: butt; stroke-linejoin: miter; stroke-miterlimit: 10; fill: none; fill-rule: nonzero; opacity: 1;" transform="translate(1.4065934065934016 1.4065934065934016) scale(2.81 2.81)">
	<path d="M 50.129 4.04 L 39.656 4.075 C 19.507 7.457 3.945 29.704 3.945 56.644 c 4.54 3.763 9.08 6.902 13.621 9.416 l 55.077 -0.116 c 4.471 -2.495 8.942 -5.595 13.412 -9.301 C 86.055 29.608 70.382 7.299 50.129 4.04 z" style="stroke: none; stroke-width: 1; stroke-dasharray: none; stroke-linecap: butt; stroke-linejoin: miter; stroke-miterlimit: 10; fill: rgb(239,237,239); fill-rule: nonzero; opacity: 1;" transform=" matrix(1 0 0 1 0 0) " stroke-linecap="round"/>
	<path d="M 53.391 50.577 l 0.016 1.543 c 0 2.993 2.098 5.559 4.986 6.097 l 7.462 1.391 c 3.931 0.733 6.786 4.224 6.786 8.298 v 16.277 c 0 2.212 -1.793 4.005 -4.005 4.005 H 45 H 21.364 c -2.212 0 -4.005 -1.793 -4.005 -4.005 V 67.906 c 0 -4.074 2.856 -7.566 6.786 -8.298 l 7.462 -1.391 c 2.888 -0.538 4.986 -3.104 4.986 -6.097 v -1.617 L 53.391 50.577 z" style="stroke: none; stroke-width: 1; stroke-dasharray: none; stroke-linecap: butt; stroke-linejoin: miter; stroke-miterlimit: 10; fill: rgb(255,206,191); fill-rule: nonzero; opacity: 1;" transform=" matrix(1 0 0 1 0 0) " stroke-linecap="round"/>
	<path d="M 60.092 29.569 l -0.081 7.424 c -0.188 2.296 -0.313 4.418 -1.217 6.444 c -0.488 1.095 -1.073 2.139 -1.744 3.121 c -0.671 0.981 -1.429 1.9 -2.265 2.743 c -1.958 1.976 -4.342 3.538 -7.034 4.53 l 0 0 c -1.778 0.655 -3.724 0.655 -5.502 0 l 0 0 c -7.115 -2.621 -11.559 -9.151 -12.189 -16.837 l -0.209 -8.127 c 10.405 -1.426 16.487 -3.708 20.65 -8.017 C 53.719 24.74 55.392 27.001 60.092 29.569 z" style="stroke: none; stroke-width: 1; stroke-dasharray: none; stroke-linecap: butt; stroke-linejoin: miter; stroke-miterlimit: 10; fill: rgb(255,206,191); fill-rule: nonzero; opacity: 1;" transform=" matrix(1 0 0 1 0 0) " stroke-linecap="round"/>
	<path d="M 60.136 88.188 c 2.956 -4.835 4.741 -11.102 4.741 -17.953 C 55.08 68.849 48.888 72.513 45 79.405 c -3.888 -6.892 -10.08 -10.556 -19.877 -9.17 c 0 6.854 1.787 13.122 4.744 17.957 L 60.136 88.188 z" style="stroke: none; stroke-width: 1; stroke-dasharray: none; stroke-linecap: butt; stroke-linejoin: miter; stroke-miterlimit: 10; fill: rgb(239,237,239); fill-rule: nonzero; opacity: 1;" transform=" matrix(1 0 0 1 0 0) " stroke-linecap="round"/>
	<path d="M 51.588 43.384 c -4.12 5.522 -8.241 5.56 -12.361 0 H 51.588 z" style="stroke: none; stroke-width: 1; stroke-dasharray: none; stroke-linecap: butt; stroke-linejoin: miter; stroke-miterlimit: 10; fill: rgb(239,237,239); fill-rule: nonzero; opacity: 1;" transform=" matrix(1 0 0 1 0 0) " stroke-linecap="round"/>
	<path d="M 40.12 7.718 c -0.298 -0.666 -0.464 -1.405 -0.464 -2.182 c 0 -2.951 2.393 -5.344 5.344 -5.344 s 5.344 2.393 5.344 5.344 c 0 0.738 -0.15 1.441 -0.42 2.08 L 40.12 7.718 z" style="stroke: none; stroke-width: 1; stroke-dasharray: none; stroke-linecap: butt; stroke-linejoin: miter; stroke-miterlimit: 10; fill: rgb(251,210,112); fill-rule: nonzero; opacity: 1;" transform=" matrix(1 0 0 1 0 0) " stroke-linecap="round"/>
	<path d="M 37.593 35.866 c -0.358 0 -0.704 -0.192 -0.884 -0.531 c -0.259 -0.487 -0.074 -1.093 0.414 -1.352 c 2.099 -1.116 4.228 -1.116 6.327 0 c 0.487 0.259 0.672 0.865 0.413 1.353 c -0.259 0.487 -0.863 0.673 -1.353 0.413 c -1.497 -0.796 -2.952 -0.796 -4.449 0 C 37.912 35.829 37.751 35.866 37.593 35.866 z" style="stroke: none; stroke-width: 1; stroke-dasharray: none; stroke-linecap: butt; stroke-linejoin: miter; stroke-miterlimit: 10; fill: rgb(63,63,63); fill-rule: nonzero; opacity: 1;" transform=" matrix(1 0 0 1 0 0) " stroke-linecap="round"/>
	<path d="M 53.222 35.866 c -0.158 0 -0.319 -0.038 -0.469 -0.117 c -1.496 -0.796 -2.953 -0.796 -4.449 0 c -0.488 0.259 -1.094 0.074 -1.353 -0.413 c -0.26 -0.488 -0.074 -1.093 0.413 -1.353 c 2.1 -1.116 4.229 -1.116 6.328 0 c 0.487 0.259 0.673 0.865 0.413 1.353 C 53.926 35.674 53.58 35.866 53.222 35.866 z" style="stroke: none; stroke-width: 1; stroke-dasharray: none; stroke-linecap: butt; stroke-linejoin: miter; stroke-miterlimit: 10; fill: rgb(63,63,63); fill-rule: nonzero; opacity: 1;" transform=" matrix(1 0 0 1 0 0) " stroke-linecap="round"/>
	<path d="M 45.396 49.348 c -0.003 0 -0.006 0 -0.009 0 c -2.381 -0.004 -4.725 -1.538 -6.964 -4.56 c -0.225 -0.303 -0.26 -0.708 -0.09 -1.045 s 0.515 -0.55 0.893 -0.55 h 12.361 c 0.378 0 0.725 0.213 0.894 0.552 c 0.17 0.338 0.134 0.743 -0.092 1.046 C 50.133 47.814 47.78 49.348 45.396 49.348 z M 41.366 45.192 c 1.378 1.43 2.727 2.153 4.025 2.155 c 0.001 0 0.004 0 0.005 0 c 1.301 0 2.655 -0.724 4.044 -2.155 H 41.366 z" style="stroke: none; stroke-width: 1; stroke-dasharray: none; stroke-linecap: butt; stroke-linejoin: miter; stroke-miterlimit: 10; fill: rgb(63,63,63); fill-rule: nonzero; opacity: 1;" transform=" matrix(1 0 0 1 0 0) " stroke-linecap="round"/>
	<path d="M 68.636 89.996 H 21.364 c -2.76 0 -5.005 -2.245 -5.005 -5.005 V 68.714 c 0 -4.558 3.197 -8.461 7.603 -9.282 l 7.462 -1.391 c 2.416 -0.45 4.169 -2.601 4.169 -5.113 v -1.617 c 0 -0.553 0.448 -1 1 -1 s 1 0.447 1 1 v 1.617 c 0 3.476 -2.44 6.453 -5.803 7.08 l -7.462 1.391 c -3.459 0.645 -5.969 3.721 -5.969 7.315 v 16.277 c 0 1.657 1.348 3.005 3.005 3.005 h 47.271 c 1.657 0 3.005 -1.348 3.005 -3.005 V 68.714 c 0 -3.595 -2.511 -6.671 -5.97 -7.315 l -7.462 -1.391 c -3.362 -0.627 -5.803 -3.604 -5.803 -7.08 l -0.016 -1.533 c -0.006 -0.552 0.438 -1.004 0.99 -1.01 c 0.003 0 0.007 0 0.01 0 c 0.548 0 0.994 0.441 1 0.99 l 0.016 1.543 c 0 2.522 1.754 4.673 4.17 5.123 l 7.462 1.391 c 4.405 0.821 7.603 4.725 7.603 9.282 v 16.277 C 73.641 87.751 71.396 89.996 68.636 89.996 z" style="stroke: none; stroke-width: 1; stroke-dasharray: none; stroke-linecap: butt; stroke-linejoin: miter; stroke-miterlimit: 10; fill: rgb(63,63,63); fill-rule: nonzero; opacity: 1;" transform=" matrix(1 0 0 1 0 0) " stroke-linecap="round"/>
	<path d="M 59.883 39.328 c 0.046 -0.501 0.085 -1.01 0.127 -1.527 l 0.081 -7.424 c -4.7 -2.568 -6.373 -4.83 -9.591 -8.721 c -4.163 4.309 -10.245 6.591 -20.65 8.017 l 0.209 8.127 c 0.048 0.584 0.118 1.161 0.209 1.731 l 0.005 -0.001 c -2.681 -3.342 -4.289 -7.612 -4.289 -12.266 c 0 -10.707 8.513 -19.387 19.015 -19.387 h 0 c 10.502 0 19.015 8.68 19.015 19.387 c 0 4.56 -1.544 8.753 -4.129 12.064 L 59.883 39.328 z" style="stroke: none; stroke-width: 1; stroke-dasharray: none; stroke-linecap: butt; stroke-linejoin: miter; stroke-miterlimit: 10; fill: rgb(251,210,112); fill-rule: nonzero; opacity: 1;" transform=" matrix(1 0 0 1 0 0) " stroke-linecap="round"/>
	<path d="M 59.885 40.328 c -0.215 0 -0.432 -0.069 -0.614 -0.212 c -0.436 -0.34 -0.513 -0.968 -0.173 -1.403 c 2.563 -3.282 3.917 -7.241 3.917 -11.448 c 0 -0.552 0.447 -1 1 -1 s 1 0.448 1 1 c 0 4.658 -1.501 9.042 -4.341 12.679 C 60.477 40.196 60.183 40.328 59.885 40.328 z" style="stroke: none; stroke-width: 1; stroke-dasharray: none; stroke-linecap: butt; stroke-linejoin: miter; stroke-miterlimit: 10; fill: rgb(63,63,63); fill-rule: nonzero; opacity: 1;" transform=" matrix(1 0 0 1 0 0) " stroke-linecap="round"/>
	<path d="M 30.274 40.531 c -0.293 0 -0.583 -0.128 -0.781 -0.375 c -2.907 -3.625 -4.509 -8.203 -4.509 -12.892 c 0 -0.552 0.448 -1 1 -1 s 1 0.448 1 1 c 0 4.235 1.445 8.369 4.069 11.641 c 0.345 0.431 0.276 1.06 -0.155 1.406 C 30.715 40.459 30.494 40.531 30.274 40.531 z" style="stroke: none; stroke-width: 1; stroke-dasharray: none; stroke-linecap: butt; stroke-linejoin: miter; stroke-miterlimit: 10; fill: rgb(63,63,63); fill-rule: nonzero; opacity: 1;" transform=" matrix(1 0 0 1 0 0) " stroke-linecap="round"/>
	<path d="M 45 56.127 c -1.049 0 -2.098 -0.184 -3.096 -0.551 c -7.245 -2.669 -12.165 -9.448 -12.841 -17.694 l -0.212 -8.183 c -0.013 -0.51 0.359 -0.947 0.864 -1.017 c 10.322 -1.415 16.135 -3.651 20.067 -7.721 c 0.197 -0.204 0.477 -0.33 0.757 -0.304 c 0.285 0.011 0.551 0.143 0.732 0.362 l 0.641 0.776 c 2.774 3.37 4.449 5.404 8.659 7.704 c 0.324 0.177 0.524 0.519 0.521 0.888 l -0.118 7.906 c -0.178 2.21 -0.347 4.298 -1.267 6.359 c -0.51 1.145 -1.127 2.247 -1.832 3.277 c -0.703 1.029 -1.505 1.999 -2.38 2.882 c -2.111 2.131 -4.601 3.733 -7.398 4.765 C 47.099 55.943 46.049 56.127 45 56.127 z M 30.873 30.539 l 0.186 7.236 c 0.618 7.518 4.932 13.492 11.536 15.924 c 1.551 0.57 3.26 0.57 4.811 0 c 2.521 -0.929 4.766 -2.374 6.67 -4.296 c 0.79 -0.797 1.514 -1.673 2.149 -2.603 c 0.638 -0.932 1.194 -1.928 1.656 -2.963 c 0.78 -1.748 0.928 -3.582 1.1 -5.705 l 0.033 -0.414 l 0.072 -6.758 c -4.144 -2.357 -5.978 -4.566 -8.663 -7.828 C 46.31 26.947 40.496 29.141 30.873 30.539 z" style="stroke: none; stroke-width: 1; stroke-dasharray: none; stroke-linecap: butt; stroke-linejoin: miter; stroke-miterlimit: 10; fill: rgb(63,63,63); fill-rule: nonzero; opacity: 1;" transform=" matrix(1 0 0 1 0 0) " stroke-linecap="round"/>
	<path d="M 29.868 90 c -0.337 0 -0.666 -0.17 -0.854 -0.479 c -3.154 -5.157 -4.891 -11.72 -4.891 -18.479 c 0 -0.498 0.367 -0.92 0.86 -0.99 C 33.858 68.795 40.586 71.565 45 78.29 c 4.413 -6.724 11.142 -9.492 20.018 -8.237 c 0.493 0.07 0.859 0.492 0.859 0.99 c 0 6.758 -1.736 13.319 -4.888 18.475 c -0.287 0.472 -0.903 0.62 -1.375 0.332 s -0.62 -0.904 -0.332 -1.375 c 2.827 -4.624 4.442 -10.471 4.584 -16.552 c -8.246 -0.93 -14.143 1.951 -17.995 8.781 c -0.354 0.629 -1.388 0.629 -1.742 0 c -3.853 -6.829 -9.744 -9.713 -17.996 -8.781 c 0.143 6.082 1.758 11.931 4.587 16.556 c 0.288 0.471 0.14 1.087 -0.331 1.375 C 30.226 89.953 30.045 90 29.868 90 z" style="stroke: none; stroke-width: 1; stroke-dasharray: none; stroke-linecap: butt; stroke-linejoin: miter; stroke-miterlimit: 10; fill: rgb(63,63,63); fill-rule: nonzero; opacity: 1;" transform=" matrix(1 0 0 1 0 0) " stroke-linecap="round"/>
	<path d="M 40.121 9.526 c -0.382 0 -0.747 -0.22 -0.913 -0.592 c -0.366 -0.816 -0.551 -1.688 -0.551 -2.591 C 38.656 2.846 41.502 0 45 0 s 6.344 2.846 6.344 6.344 c 0 0.856 -0.168 1.688 -0.499 2.47 c -0.215 0.51 -0.806 0.745 -1.311 0.531 c -0.509 -0.215 -0.746 -0.802 -0.531 -1.311 c 0.227 -0.535 0.341 -1.103 0.341 -1.69 C 49.344 3.949 47.396 2 45 2 c -2.395 0 -4.344 1.949 -4.344 4.344 c 0 0.619 0.126 1.216 0.376 1.773 c 0.226 0.504 0 1.096 -0.504 1.321 C 40.396 9.498 40.257 9.526 40.121 9.526 z" style="stroke: none; stroke-width: 1; stroke-dasharray: none; stroke-linecap: butt; stroke-linejoin: miter; stroke-miterlimit: 10; fill: rgb(63,63,63); fill-rule: nonzero; opacity: 1;" transform=" matrix(1 0 0 1 0 0) " stroke-linecap="round"/>
	<path d="M 17.565 67.868 c -0.164 0 -0.33 -0.04 -0.483 -0.125 c -4.573 -2.533 -9.208 -5.736 -13.774 -9.521 c -0.229 -0.189 -0.362 -0.472 -0.362 -0.77 c 0 -27.035 15.711 -50.058 36.545 -53.555 c 0.548 -0.092 1.061 0.276 1.152 0.821 c 0.091 0.544 -0.276 1.061 -0.821 1.152 C 20.059 9.187 5.126 31.117 4.947 56.982 c 4.354 3.575 8.76 6.605 13.104 9.011 c 0.483 0.268 0.658 0.876 0.391 1.359 C 18.258 67.683 17.917 67.868 17.565 67.868 z" style="stroke: none; stroke-width: 1; stroke-dasharray: none; stroke-linecap: butt; stroke-linejoin: miter; stroke-miterlimit: 10; fill: rgb(63,63,63); fill-rule: nonzero; opacity: 1;" transform=" matrix(1 0 0 1 0 0) " stroke-linecap="round"/>
	<path d="M 72.644 67.753 c -0.351 0 -0.691 -0.185 -0.874 -0.513 c -0.27 -0.482 -0.097 -1.092 0.386 -1.36 c 4.274 -2.386 8.612 -5.378 12.897 -8.897 C 84.874 30.979 69.852 9.035 49.97 5.835 c -0.545 -0.088 -0.916 -0.601 -0.828 -1.146 c 0.088 -0.545 0.599 -0.918 1.146 -0.829 c 20.96 3.374 36.767 26.413 36.767 53.592 c 0 0.298 -0.133 0.58 -0.362 0.77 c -4.497 3.728 -9.061 6.892 -13.563 9.404 C 72.976 67.712 72.809 67.753 72.644 67.753 z" style="stroke: none; stroke-width: 1; stroke-dasharray: none; stroke-linecap: butt; stroke-linejoin: miter; stroke-miterlimit: 10; fill: rgb(63,63,63); fill-rule: nonzero; opacity: 1;" transform=" matrix(1 0 0 1 0 0) " stroke-linecap="round"/>
	<path d="M 14.534 58.452 c -0.552 0 -1 -0.447 -1 -1 c 0 -11.523 2.072 -22.512 5.991 -31.779 c 0.215 -0.509 0.801 -0.747 1.311 -0.531 c 0.508 0.215 0.747 0.802 0.531 1.311 c -3.816 9.023 -5.833 19.742 -5.833 31 C 15.534 58.005 15.086 58.452 14.534 58.452 z" style="stroke: none; stroke-width: 1; stroke-dasharray: none; stroke-linecap: butt; stroke-linejoin: miter; stroke-miterlimit: 10; fill: rgb(63,63,63); fill-rule: nonzero; opacity: 1;" transform=" matrix(1 0 0 1 0 0) " stroke-linecap="round"/>
	<path d="M 75.466 58.452 c -0.553 0 -1 -0.447 -1 -1 c 0 -11.259 -2.017 -21.979 -5.833 -31 c -0.215 -0.509 0.022 -1.096 0.531 -1.311 c 0.508 -0.215 1.096 0.023 1.311 0.531 c 3.92 9.267 5.991 20.256 5.991 31.78 C 76.466 58.005 76.019 58.452 75.466 58.452 z" style="stroke: none; stroke-width: 1; stroke-dasharray: none; stroke-linecap: butt; stroke-linejoin: miter; stroke-miterlimit: 10; fill: rgb(63,63,63); fill-rule: nonzero; opacity: 1;" transform=" matrix(1 0 0 1 0 0) " stroke-linecap="round"/>
	<path d="M 64.015 28.265 c -0.553 0 -1 -0.448 -1 -1 c 0 -10.139 -8.081 -18.387 -18.015 -18.387 s -18.015 8.248 -18.015 18.387 c 0 0.552 -0.448 1 -1 1 s -1 -0.448 -1 -1 c 0 -11.241 8.979 -20.387 20.015 -20.387 c 11.036 0 20.015 9.146 20.015 20.387 C 65.015 27.817 64.567 28.265 64.015 28.265 z" style="stroke: none; stroke-width: 1; stroke-dasharray: none; stroke-linecap: butt; stroke-linejoin: miter; stroke-miterlimit: 10; fill: rgb(63,63,63); fill-rule: nonzero; opacity: 1;" transform=" matrix(1 0 0 1 0 0) " stroke-linecap="round"/>
</g>
</svg>